<?xml version="1.0" encoding="UTF-8"?>
<svg id="Capa_2" data-name="Capa 2" xmlns="http://www.w3.org/2000/svg" viewBox="0 0 218.8 128">
  <defs>
    <style>
      .cls-1 {
        fill: #fff;
        stroke-width: 0px;
      }
    </style>
  </defs>
  <g id="Capa_1-2" data-name="Capa 1">
    <g>
      <path class="cls-1" d="M59.08,110.52v3.65c0,.58.44,1.05.98,1.05h4.41c.54,0,.98.47.98,1.05v.3c0,.58-.44,1.05-.98,1.05h-4.41c-.54,0-.98.47-.98,1.05v5.35c0,.58.44,1.05.98,1.05h6.77c.54,0,.98.47.98,1.05v.45c0,.58-.44,1.05-.98,1.05h-9.4c-.54,0-.98-.47-.98-1.05v-18.56c0-.58.44-1.05.98-1.05h9.55c.54,0,.98.47.98,1.05v.45c0,.58-.44,1.05-.98,1.05h-6.92c-.54,0-.98.47-.98,1.05Z"/>
      <path class="cls-1" d="M71.31,125.64l.05-.13c.25-.68.98-1.01,1.61-.72.23.11.48.21.74.3.73.26,1.39.39,1.96.39,1.03,0,1.85-.3,2.47-.9.62-.6.93-1.36.93-2.28,0-.69-.17-1.33-.52-1.93-.35-.59-1.22-1.24-2.61-1.94l-1.55-.77c-1.31-.65-2.23-1.43-2.75-2.33-.52-.9-.78-1.98-.78-3.24,0-1.53.51-2.8,1.52-3.81,1.02-1.01,2.32-1.51,3.92-1.51,1.43,0,2.57.17,3.42.5.61.24.91.97.7,1.63h0c-.22.71-.94,1.07-1.59.8-.14-.06-.3-.12-.46-.17-.72-.25-1.38-.38-2-.38-.89,0-1.6.27-2.11.81-.51.54-.77,1.24-.77,2.09,0,.52.09,1,.28,1.43.18.43.44.79.77,1.08.33.29,1,.7,2.02,1.22l1.58.8c1.31.66,2.24,1.45,2.77,2.37.53.92.79,2.09.79,3.51,0,1.54-.58,2.85-1.74,3.92-1.16,1.07-2.71,1.61-4.66,1.61-1.24,0-2.35-.23-3.33-.68-.61-.28-.89-1.03-.65-1.68Z"/>
      <path class="cls-1" d="M91.75,110.61v16.11c0,.61-.46,1.11-1.02,1.11h-.59c-.56,0-1.02-.5-1.02-1.11v-16.11c0-.61-.46-1.11-1.02-1.11h-4.08c-.56,0-1.02-.5-1.02-1.11v-.35c0-.61.46-1.11,1.02-1.11h13.11c.56,0,1.02.5,1.02,1.11v.35c0,.61-.46,1.11-1.02,1.11h-4.36c-.56,0-1.02.5-1.02,1.11Z"/>
      <path class="cls-1" d="M101.61,106.93h.31c.64,0,1.16.56,1.16,1.25v12.93c0,1.26.37,2.3,1.12,3.12.74.82,1.73,1.22,2.96,1.22,1.3,0,2.32-.4,3.06-1.19.74-.79,1.12-1.87,1.12-3.22v-12.86c0-.69.52-1.25,1.16-1.25h.31c.64,0,1.16.56,1.16,1.25v13.16c0,2.09-.61,3.72-1.82,4.9s-2.87,1.76-4.96,1.76-3.81-.57-4.98-1.72c-1.17-1.15-1.75-2.8-1.75-4.95v-13.14c0-.69.52-1.25,1.16-1.25Z"/>
      <path class="cls-1" d="M121.54,127.77h-2.51c-.76,0-1.37-.67-1.37-1.49v-18.08c0-.81.59-1.47,1.33-1.49,1.72-.06,2.86-.09,3.42-.09,2.69,0,4.82.89,6.39,2.68s2.35,4.16,2.35,7.12c0,7.57-3.2,11.36-9.6,11.36ZM120.29,110.72v12.96c0,.81.58,1.46,1.32,1.49.27.01.56.02.86.02,1.84,0,3.28-.75,4.34-2.26,1.05-1.51,1.58-3.6,1.58-6.28,0-4.97-2.05-7.46-6.14-7.46-.12,0-.35.01-.68.04-.72.05-1.27.71-1.27,1.49Z"/>
      <path class="cls-1" d="M134.78,126.79v-18.88c0-.54.4-.98.9-.98h.82c.5,0,.9.44.9.98v18.88c0,.54-.4.98-.9.98h-.82c-.5,0-.9-.44-.9-.98Z"/>
      <path class="cls-1" d="M139.95,117.11c0-2.98.7-5.48,2.1-7.49,1.4-2.01,3.28-3.01,5.66-3.01,2.67,0,4.72.92,6.14,2.77,1.42,1.85,2.14,4.43,2.14,7.73s-.71,6.04-2.14,7.96-3.47,2.88-6.14,2.88c-2.43,0-4.33-1.01-5.7-3.04-1.37-2.03-2.06-4.63-2.06-7.8ZM142.71,117.11c0,2.37.44,4.34,1.31,5.93.87,1.59,2.1,2.38,3.69,2.38,1.8,0,3.16-.73,4.11-2.18.94-1.45,1.41-3.5,1.41-6.12,0-5.31-1.84-7.97-5.52-7.97-1.63,0-2.87.71-3.72,2.14-.85,1.43-1.27,3.37-1.27,5.83Z"/>
      <path class="cls-1" d="M86.43,99.47h-2.81c-3.05,0-5.52-2.48-5.52-5.53l.09-46.5c.01-6.24-8.73-7.7-10.74-1.79l-17.07,50.08c-.76,2.23-2.86,3.74-5.22,3.74h0c-2.43,0-4.57-1.59-5.28-3.91l-14.4-47.24c-1.84-6.05-10.75-4.75-10.8,1.57l-.3,44.1c-.02,3.03-2.49,5.48-5.52,5.48h-3.34c-3.05,0-5.52-2.47-5.52-5.52V6.4C0,3.35,2.47.88,5.52.88h8.15c2.32,0,4.4,1.45,5.19,3.64l22,60.72c1.76,4.87,8.66,4.84,10.39-.04L72.68,4.56c.78-2.2,2.86-3.68,5.2-3.68h7.93c3.03,0,5.5,2.45,5.52,5.48l.62,87.55c.02,3.06-2.46,5.56-5.52,5.56Z"/>
      <g>
        <path class="cls-1" d="M186.27,41.31c-3.13.22-19.7,2.29-25.56,1.08-4.49-.92-7.22-4.05-8.51-8.13-1.54-4.85-.78-9.22,2.29-13.11,3.07-3.89,7.1-6.64,12.11-8.23,5.05-1.61,10.25-1.75,15.59-.42,4.16,1.03,7.59,3.18,10.28,6.43,1.44,1.74,3.76,2.48,5.91,1.77h0c3.67-1.21,4.91-5.77,2.36-8.68-9.16-10.43-23.13-14.74-37.16-10.27-9.03,2.87-15.26,9.16-19.58,15.53-4.32,6.38-6.2,14.59-3.77,22.24,1.47,4.61,3.59,8.65,7.06,11.28,11.2,8.49,29.44,4.91,39.01,4.02,10.89-1.01,17.65,2.27,19.94,9.44,1.63,5.13.9,9.74-2.19,13.81-3.1,4.07-7.2,6.92-12.3,8.55s-10.34,2.3-15.82.84c-4.34-1.15-7.42-2.82-10.03-6.09-1.36-1.7-3.58-2.45-5.66-1.84l-.26.08c-3.75,1.11-5.09,5.71-2.55,8.69,9.32,10.92,23.16,14.71,37.53,10.14,9.21-2.93,15.91-9.24,19.87-16.17,4.01-7,5.17-14.05,2.66-22.17-5.37-17.36-20.34-19.55-31.21-18.79Z"/>
        <circle class="cls-1" cx="185.66" cy="71.19" r="7.31"/>
        <circle class="cls-1" cx="171.66" cy="27.85" r="7.31"/>
      </g>
      <path class="cls-1" d="M155.39,91.87l-27.98-53.61c-.93-1.77-.75-3.92.46-5.52l17.77-23.56c2.58-3.42.14-8.31-4.14-8.31-1.62,0-3.15.76-4.13,2.05l-29.95,39.41h0l-12.16,15.62c-2.62,3.38-.25,8.31,4.03,8.36,1.62.02,2.34-.58,3.47-1.85l9.77-13.15c2.31-2.97,6.92-2.56,8.67.77l23.54,44.6c.9,1.7,2.66,2.77,4.59,2.77h1.46c3.89,0,6.4-4.13,4.6-7.58Z"/>
    </g>
  </g>
</svg>