<?xml version="1.0" encoding="UTF-8"?>
<svg id="Capa_1" data-name="Capa 1" xmlns="http://www.w3.org/2000/svg" version="1.1" viewBox="0 0 16 16">
  <defs>
    <style>
      .cls-1 {
        fill: #fff;
        stroke-width: 0px;
      }
    </style>
  </defs>
  <path class="cls-1" d="M4.7,3c.5,0,.9,0,1.3.1.4,0,.7.2,1,.4s.5.4.6.7c.1.3.2.7.2,1.1s-.1.9-.4,1.2c-.2.3-.6.6-1,.8.6.2,1.1.5,1.3.9.3.4.5,1,.5,1.6s-.1.9-.3,1.3c-.2.4-.4.7-.8.9-.3.2-.7.4-1.1.5-.4.1-.8.2-1.3.2H0S0,3,0,3h4.7ZM4.4,7c.4,0,.7-.1,1-.3.2-.2.4-.5.4-.9s0-.4-.1-.6c0-.1-.2-.3-.3-.4-.1,0-.3-.1-.5-.2-.2,0-.4,0-.6,0h-2.1v2.3s2.2,0,2.2,0h0ZM4.5,11.2c.2,0,.4,0,.6,0,.2,0,.4-.1.5-.2s.2-.2.4-.4c0-.2.1-.4.1-.6,0-.5-.1-.9-.4-1.1-.3-.2-.7-.3-1.1-.3h-2.3v2.7h2.3,0ZM11.3,11.1c.3.3.7.4,1.3.4.4,0,.7-.1,1-.3.3-.2.5-.4.5-.6h1.7c-.3.9-.7,1.5-1.3,1.8-.6.4-1.2.6-2.1.6-.5,0-1,0-1.5-.3-.4-.2-.8-.4-1.1-.8-.3-.3-.6-.7-.7-1.2-.2-.5-.2-1-.2-1.5s0-1,.2-1.5c.2-.5.4-.9.7-1.2.3-.3.7-.6,1.1-.8.5-.2,1-.3,1.5-.3.6,0,1.1.1,1.6.4.5.2.8.5,1.1,1,.3.4.5.9.6,1.3,0,.5.1,1,0,1.6h-5.1c0,.6.2,1.1.5,1.4M13.6,7.4c-.2-.2-.6-.4-1.1-.4s-.6,0-.8.2-.4.2-.5.4c-.1.1-.2.3-.2.5,0,.2,0,.3,0,.5h3.2c0-.5-.2-.9-.5-1.1h0ZM10.4,3.7h4v1h-4v-1Z"/>
</svg>